<?xml version="1.0" encoding="iso-8859-1"?>
<!-- Generator: Adobe Illustrator 19.0.0, SVG Export Plug-In . SVG Version: 6.00 Build 0)  -->
<svg version="1.1" id="Layer_1" xmlns="http://www.w3.org/2000/svg" xmlns:xlink="http://www.w3.org/1999/xlink" x="0px" y="0px"
	 viewBox="0 0 512 512" style="enable-background:new 0 0 512 512;" xml:space="preserve">
<g>
	<g>
		<g>
			<circle cx="256" cy="275.19" r="13.299"/>
			<path d="M505.732,181.292l0.003-0.004c0,0-0.408-0.251-0.541-0.326L262.935,34.917c-4.257-2.6-9.614-2.6-13.871,0L6.564,181.103
				C2.638,183.411,0,187.667,0,192.551v273.183c0,7.344,5.955,13.299,13.299,13.299h485.403c7.344,0,13.299-5.955,13.299-13.299
				V192.551C512,187.794,509.491,183.637,505.732,181.292z M256,61.851l215.46,130.19l-135.668,86.686V228.65
				c0-7.344-5.955-13.299-13.299-13.299v-17.288c0-36.665-29.829-66.494-66.494-66.494s-66.494,29.829-66.494,66.494v17.288
				c-7.344,0-13.299,5.955-13.299,13.299v50.078L40.54,192.021L256,61.851z M309.195,241.949v66.493h-106.39v-66.493H309.195z
				 M216.104,215.351v-17.288c0-21.999,17.897-39.896,39.896-39.896s39.896,17.897,39.896,39.896v17.288H216.104z M26.597,214.705
				l149.61,95.584v11.451c0,7.344,5.955,13.299,13.299,13.299h15.476L26.597,444.053V214.705z M63.888,452.435L255.992,335.04h0.017
				l192.104,117.396H63.888z M485.403,444.053L307.016,335.038h15.477c7.344,0,13.299-5.955,13.299-13.299v-11.452l149.61-95.583
				V444.053z"/>
		</g>
	</g>
</g>
<g>
</g>
<g>
</g>
<g>
</g>
<g>
</g>
<g>
</g>
<g>
</g>
<g>
</g>
<g>
</g>
<g>
</g>
<g>
</g>
<g>
</g>
<g>
</g>
<g>
</g>
<g>
</g>
<g>
</g>
</svg>
